<?xml version="1.0" encoding="UTF-8" standalone="no"?>
<!DOCTYPE svg PUBLIC "-//W3C//DTD SVG 1.1//EN" "http://www.w3.org/Graphics/SVG/1.1/DTD/svg11.dtd">
<svg version="1.1" xmlns="http://www.w3.org/2000/svg" xmlns:xlink="http://www.w3.org/1999/xlink" preserveAspectRatio="xMidYMid meet" viewBox="0 0 640 640" width="640" height="640"><defs><path d="M462.58 194.68C462.58 229.58 434.25 257.92 399.34 257.92C364.44 257.92 336.11 229.58 336.11 194.68C336.11 159.78 364.44 131.44 399.34 131.44C434.25 131.44 462.58 159.78 462.58 194.68Z" id="baWXVMVKUC"></path><path d="M48.85 232.91L552.16 150.57L558.62 190.05L55.31 272.38L48.85 232.91Z" id="cchdIRDvt"></path><path d="M57.4 440.59L526.83 517.38L533.29 477.91L63.86 401.12L57.4 440.59Z" id="cdAUPDLgN"></path><path d="M50.39 315L589.6 315L589.6 355L50.39 355L50.39 315Z" id="hl2OxVRRb"></path><path d="M600 320C600 474.54 474.54 600 320 600C165.46 600 40 474.54 40 320C40 165.46 165.46 40 320 40C474.54 40 600 165.46 600 320Z" id="cE0gAgOcl"></path></defs><g><g><g><use xlink:href="#baWXVMVKUC" opacity="1" fill="#ffffff" fill-opacity="1"></use><g><use xlink:href="#baWXVMVKUC" opacity="1" fill-opacity="0" stroke="#000000" stroke-width="1" stroke-opacity="0"></use></g></g><g><use xlink:href="#cchdIRDvt" opacity="1" fill="#ffffff" fill-opacity="1"></use><g><use xlink:href="#cchdIRDvt" opacity="1" fill-opacity="0" stroke="#000000" stroke-width="1" stroke-opacity="0"></use></g></g><g><use xlink:href="#cdAUPDLgN" opacity="1" fill="#ffffff" fill-opacity="1"></use><g><use xlink:href="#cdAUPDLgN" opacity="1" fill-opacity="0" stroke="#000000" stroke-width="1" stroke-opacity="0"></use></g></g><g><use xlink:href="#hl2OxVRRb" opacity="1" fill="#ffffff" fill-opacity="1"></use><g><use xlink:href="#hl2OxVRRb" opacity="1" fill-opacity="0" stroke="#000000" stroke-width="1" stroke-opacity="0"></use></g></g><g><use xlink:href="#cE0gAgOcl" opacity="1" fill="#000000" fill-opacity="0"></use><g><use xlink:href="#cE0gAgOcl" opacity="1" fill-opacity="0" stroke="#ffffff" stroke-width="35" stroke-opacity="1"></use></g></g></g></g></svg>