<?xml version="1.0" encoding="UTF-8" standalone="no"?>
<!DOCTYPE svg PUBLIC "-//W3C//DTD SVG 1.1//EN" "http://www.w3.org/Graphics/SVG/1.1/DTD/svg11.dtd">
<svg version="1.1" xmlns="http://www.w3.org/2000/svg" xmlns:xlink="http://www.w3.org/1999/xlink" preserveAspectRatio="xMidYMid meet" viewBox="0 0 640 640" width="640" height="640"><defs><path d="M320 40C474.54 40 600 165.46 600 320C600 474.54 474.54 600 320 600C165.46 600 40 474.54 40 320C40 165.46 165.46 40 320 40Z" id="efL87QBJn"></path><path d="M399.34 131.44C434.25 131.44 462.58 159.78 462.58 194.68C462.58 229.58 434.25 257.92 399.34 257.92C364.44 257.92 336.11 229.58 336.11 194.68C336.11 159.78 364.44 131.44 399.34 131.44Z" id="f4M2eY8VG"></path><path d="M55.31 272.38L48.85 232.91L552.16 150.57L558.62 190.05L55.31 272.38Z" id="bkMlQQ0Hv"></path><path d="M63.86 401.12L57.4 440.59L526.83 517.38L533.29 477.91L63.86 401.12Z" id="a1D6c45s7g"></path><path d="M50.39 355L50.39 315L589.6 315L589.6 355L50.39 355Z" id="a1fAUzMPo5"></path><path d="M320 40C474.54 40 600 165.46 600 320C600 474.54 474.54 600 320 600C165.46 600 40 474.54 40 320C40 165.46 165.46 40 320 40Z" id="a4KfU0fmem"></path></defs><g><g><g><use xlink:href="#efL87QBJn" opacity="1" fill="#111111" fill-opacity="1"></use><g><use xlink:href="#efL87QBJn" opacity="1" fill-opacity="0" stroke="#000000" stroke-width="1" stroke-opacity="0"></use></g></g><g><use xlink:href="#f4M2eY8VG" opacity="1" fill="#29b6f6" fill-opacity="1"></use><g><use xlink:href="#f4M2eY8VG" opacity="1" fill-opacity="0" stroke="#000000" stroke-width="1" stroke-opacity="0"></use></g></g><g><use xlink:href="#bkMlQQ0Hv" opacity="1" fill="#ffee58" fill-opacity="1"></use><g><use xlink:href="#bkMlQQ0Hv" opacity="1" fill-opacity="0" stroke="#000000" stroke-width="1" stroke-opacity="0"></use></g></g><g><use xlink:href="#a1D6c45s7g" opacity="1" fill="#ef5350" fill-opacity="1"></use><g><use xlink:href="#a1D6c45s7g" opacity="1" fill-opacity="0" stroke="#000000" stroke-width="1" stroke-opacity="0"></use></g></g><g><use xlink:href="#a1fAUzMPo5" opacity="1" fill="#66bb6a" fill-opacity="1"></use><g><use xlink:href="#a1fAUzMPo5" opacity="1" fill-opacity="0" stroke="#000000" stroke-width="1" stroke-opacity="0"></use></g></g><g><use xlink:href="#a4KfU0fmem" opacity="1" fill="#000000" fill-opacity="0"></use><g><use xlink:href="#a4KfU0fmem" opacity="1" fill-opacity="0" stroke="#ffffff" stroke-width="35" stroke-opacity="1"></use></g></g></g></g></svg>